<?xml version="1.0" encoding="UTF-8"?>
<svg width="764px" height="672px" viewBox="0 0 764 672" version="1.1" xmlns="http://www.w3.org/2000/svg" xmlns:xlink="http://www.w3.org/1999/xlink">
    <!-- Generator: Sketch 52 (66869) - http://www.bohemiancoding.com/sketch -->
    <title>Untitled</title>
    <desc>Created with Sketch.</desc>
    <g id="Page-1" opacity="0.4" stroke="none" stroke-width="1" fill="none" fill-rule="evenodd">
        <g id="HexTee2012-modified" transform="translate(1.000000, 0.000000)">
            <g id="layer7" transform="translate(234.031250, 129.576263)">
                <path d="M179.41665,40.04092 C179.41665,40.04092 173.96377,35.21626 175.99169,30.69708 C178.03159,26.15121 182.48893,25.27236 184.3933,21.96056 C186.29768,18.64877 184.70208,12.41512 185.19985,11.5233 C185.69762,10.63148 189.75253,10.16493 191.58106,14.63108 C192.69299,18.49765 191.09913,25.41482 195.2898,26.15044 C196.58167,26.37721 202.93133,10.94915 206.62744,7.82851 C207.03392,7.48531 211.13102,2.61337 211.60697,6.99186 C211.64277,7.32116 205.78848,21.9943 209.99514,24.25388 C211.40053,25.00878 222.30171,24.36669 223.30778,16.33303 C224.28189,8.55444 227.72809,-4.07346 232.52935,1.68917 C233.58099,2.9514 229.09756,8.76338 233.16437,11.48159 C236.64312,13.80674 243.94225,11.44169 244.36737,5.2746 C244.41147,4.63487 247.13562,1.54296 248.19197,5.8631 C248.73455,8.08206 251.72205,3.84638 253.27339,4.79374 C254.21382,5.36804 244.55841,16.7569 245.77713,21.125 C248.23846,29.94683 254.37587,25.02803 255.30926,25.74872 C256.26812,26.48907 255.76402,31.1058 248.83471,31.93434 C240.60578,32.91827 239.59457,43.15371 244.34265,44.9581 C247.30868,46.08526 251.38267,48.53239 257.22042,34.1456 C259.76467,27.87543 268.16714,27.15789 264.38857,33.29297 C264.32007,43.7906 267.91209,48.48554 273.24561,42.60679 C277.31665,38.11958 271.81717,31.29329 278.30674,27.36258 C285.76418,22.84563 275.96475,39.99642 284.17684,39.68891 C287.75243,39.55502 290.01537,36.77514 290.30896,25.37753 C290.44218,20.20592 299.02389,14.8829 298.04296,18.50463 C294.19387,32.71591 299.05861,35.93487 296.55625,42.13137 C294.01255,48.43024 286.05309,50.70342 287.20864,52.29061 C289.8655,55.93989 295.93871,49.34297 298.04205,49.32619 C299.01048,49.31819 301.29208,60.26471 294.22543,60.0238 C288.92748,59.84318 271.87836,74.79063 295.09531,75.48181 C305.90031,75.80348 298.99476,61.19806 310.75691,52.27589 C317.19431,47.3928 308.10461,62.00394 312.93661,66.858 C320.46324,74.41898 317.9462,63.45164 328.62957,59.87909 C333.6606,58.1967 336.82066,61.38011 344.54785,57.04423 C353.77127,51.86878 351.60881,60.26052 342.9713,64.40882 C341.50167,65.11463 331.29094,67.94231 335.45967,71.41961 C336.30021,72.12074 344.03975,70.32914 342.33984,73.46143 C335.85981,85.40169 323.32904,76.8593 324.68595,88.63032 C325.1409,92.57693 333.16995,90.33583 337.60799,91.33629 C347.16869,93.49156 321.26548,98.58122 331.03373,107.69095 C341.07246,117.05293 348.44745,94.66125 351.13492,101.12348 C353.66324,107.203 346.60709,112.75241 352.83321,115.89152 C359.87135,119.44003 367.66087,105.73471 372.65275,106.2447 C376.57897,106.64582 366.89178,114.4185 370.07006,115.92362 C371.58815,116.64254 374.38053,113.04557 377.10408,114.04597 C378.14696,114.42904 374.41206,121.38866 370.9538,122.78209 C364.97574,125.19083 363.06098,132.00198 372.05692,127.34861 C382.5955,121.89727 379.19595,128.89581 371.78356,133.44822 C368.28897,135.59447 361.96084,135.72277 360.73955,138.69096 C359.58242,141.50319 363.49359,144.04943 371.60333,140.60935 C374.66217,139.31182 386.86693,132.37713 389.80534,135.35926 C391.41836,136.99627 388.06964,136.28777 384.21898,149.22062 C382.58829,154.69747 386.0069,165.57468 383.81528,167.46921 C379.23348,171.42989 374.5416,189.11924 355.0634,176.00441 L179.41665,40.04094 L179.41665,40.04092 Z" id="rect3699" fill="#FFD306"></path>
                <path d="M47.39812,55.11937 C47.64417,46.78808 45.3041,49.56058 45.54952,43.97417 C46.01527,33.37218 52.82484,53.27372 55.49353,48.06875 C59.28316,40.67755 55.67891,42.92792 55.64354,36.01958 C55.62544,32.48011 59.68036,28.55732 60.84734,24.88399 C61.50347,22.81863 50.0258,12.04905 64.49755,16.73482 C66.66766,17.43748 72.7289,21.71772 72.69031,26.7452 C72.58481,40.49036 73.42614,32.48011 74.43921,31.08052 C75.9274,29.02452 73.88725,22.28707 78.21033,26.85808 C80.84,29.63856 80.36056,32.92403 80.71362,35.90001 C81.39575,41.64974 82.29254,37.60715 82.58584,35.98271 C84.36118,26.1499 81.37908,25.87345 84.46696,22.20583 C90.09009,15.52698 88.91618,23.01252 88.65451,28.65417 C88.48008,32.41512 88.38773,36.06927 92.98745,33.63762 C96.46793,31.79766 93.66468,24.13907 92.77764,15.13226 C91.06808,-2.22603 98.53546,7.62195 103.69961,15.74103 C108.84357,23.82838 115.18042,22.0097 115.18042,22.0097 L126.73167,29.05315 L0.51311,112.44756 C14.29898,92.74333 40.70544,78.47899 47.39812,55.11937 Z" id="rect3821" fill="#FFD305"></path>
                <path d="M184.08374,45.11902 C183.68857,42.3879 180.56207,37.6039 183.42758,32.95379 C187.93292,25.64259 183.33148,32.1459 193.85597,34.51688 C196.74153,35.16695 202.42026,26.22163 204.61409,31.90804 C211.8853,50.75502 212.16622,32.6706 223.58871,31.42353 C240.89542,28.64811 227.67325,33.25479 226.66294,45.66929 C225.48805,60.10602 234.48257,39.32077 236.99536,43.66222 C239.12171,47.336 245.04402,55.20642 247.65544,54.19682 C269.87489,45.60658 248.82003,74.43815 258.11081,66.81356 C283.72095,45.79629 273.26872,61.45729 275.43481,67.45083 C276.9657,71.68678 270.25239,82.25163 289.97908,82.8389 C298.98801,86.13198 317.72304,63.96638 309.20479,82.17777 C308.9706,85.52355 316.40245,82.05319 317.93033,85.6039 C321.26419,93.35165 303.76288,93.45012 312.06265,101.19036 C320.59223,109.14493 320.94202,93.50028 323.22548,98.99104 C325.37371,104.15661 321.63224,119.29606 326.92237,121.96326 C332.90245,124.97832 339.92619,112.66205 344.04413,113.76667 C351.84363,115.85886 328.40074,122.06156 351.42879,123.68097 C357.19652,124.08658 336.59647,135.13021 343.50096,134.85524 C345.32265,135.91221 354.47622,125.52122 361.43551,129.20702 C366.6274,131.95677 346.31717,139.09501 354.15332,147.46455 C360.09296,153.80847 374.05256,141.82368 373.53195,150.57332 C373.24302,155.42935 384.88308,190.60503 369.10581,178.39226 C319.35869,139.88434 213.47898,97.37374 185.77417,40.89295 C185.77417,40.89294 185.77417,40.89292 185.77417,40.89293 L184.08374,45.11902 Z" id="rect3699-1" fill="#D40000"></path>
                <path d="M54.1384,65.01859 C50.48789,50.24678 59.75208,60.52863 61.66511,56.7975 C66.25828,52.00902 60.74775,49.53595 61.12011,43.36523 C65.57483,32.72064 67.9508,35.48983 70.11173,43.89858 C79.26312,66.31755 77.67026,45.0008 81.63754,41.44544 C85.66843,36.65777 90.00661,35.25027 89.81904,39.29443 C89.694,41.99043 90.02624,43.41455 93.3235,41.67144 C95.81845,40.35249 98.59022,38.05 97.95435,31.59356 C96.72887,19.15044 103.2771,20.23331 106.97897,26.05339 C110.66637,31.85073 112.41982,31.74233 112.41982,31.74233 L125.08302,34.79918 L23.44825,102.14994 C33.63153,87.04076 27.78493,94.55777 54.1384,65.01859 Z" id="rect3821-2" fill="#D40000"></path>
            </g>
            <g id="layer4" transform="translate(0.031250, 0.576263)">
                <path d="M182.0586,214.43491 C182.0586,214.43491 219.84913,195.22696 241.55651,197.21472 C263.26388,199.20248 284.41742,180.28742 284.94413,189.32606 C285.45447,198.0839 268.32973,200.9205 266.34943,210.4565 C264.36913,219.9925 254.24183,224.8199 239.86607,234.9677 C225.49032,245.1155 183.84863,228.62151 183.84863,228.62151 C183.84863,228.62151 182.15605,217.11102 182.0586,214.43491 Z" id="rect3871" stroke="#000000" stroke-width="2.3875" fill="#C6E3F4" stroke-linejoin="round"></path>
                <polygon id="rect4411" stroke="#000000" stroke-width="2.3875" fill="#28170B" stroke-linejoin="round" points="574.20892 332.14367 653.16874 425.58456 653.73909 656.44742 575.13564 590.23642"></polygon>
                <rect id="rect4416" stroke="#000000" stroke-width="2.3875" fill="#28170B" stroke-linejoin="round" x="653.76923" y="576.3905" width="106.75615" height="80.026741"></rect>
                <polygon id="rect4411-5" stroke="#000000" stroke-width="2.3875" fill="#28170B" stroke-linejoin="round" points="186.5412 311.24112 106.46824 425.585 107.02475 656.43119 185.61464 585.95596"></polygon>
                <rect id="rect4416-3" stroke="#000000" stroke-width="2.3875" fill="#28170B" stroke-linejoin="round" transform="translate(53.625760, 613.808694) scale(-1, 1) translate(-53.625760, -613.808694) " x="0.25689" y="571.21832" width="106.73774" height="85.180748"></rect>
                <path d="M443.50098,32.833532 L411.62598,64.788296 L347.87598,64.788296 L316.00098,32.833532 L347.87598,0.8787695 C347.87598,0.8787695 348.84328,10.384252 379.69063,10.25581 C410.53797,10.127369 411.62598,0.8787695 411.62598,0.8787695 L443.50098,32.833532 Z" id="path3670" fill="#FFFFFF"></path>
                <path d="M354.32952,6.496222 C354.32952,6.496222 359.57272,10.053979 379.2858,10.053979 C398.99888,10.053979 405.88453,5.995242 405.88453,5.995242 C405.88453,5.995242 411.48513,18.996438 411.25693,32.616758 C411.02873,46.237079 405.86036,64.788687 405.86036,64.788687 L354.92217,64.788687 C354.92217,64.788687 346.73129,49.586155 347.30348,33.69364 C347.87568,17.801125 354.32952,6.496222 354.32952,6.496222 Z" id="rect3673" fill="#000000"></path>
                <path d="M123.534795,209.269368 C123.534795,219.987116 114.846345,228.675566 104.128597,228.675566 C93.4108487,228.675566 84.7223871,219.987116 84.7223871,209.269368 C84.7223871,198.551607 93.4108487,189.863158 104.128597,189.863158 C114.846345,189.863158 123.534795,198.551607 123.534795,209.269368 Z" id="path3845" stroke="#000000" stroke-width="2.3875" fill="#FFFFFF" stroke-linejoin="round"></path>
                <path d="M115.3551,224.65998 C133.38632,258.46853 133.9498,259.032 133.9498,259.032" id="path3847" stroke="#000000" stroke-width="2.3875" stroke-linejoin="round"></path>
                <polyline id="path3849" stroke="#000000" stroke-width="2.3875" stroke-linejoin="round" points="121 252.98437 111.33789 245.41406 117.21484 228.08203 143.21289 228.48047"></polyline>
                <polyline id="path3851" stroke="#000000" stroke-width="2.3875" stroke-linejoin="round" points="165.625 292.5293 153.47266 265.83398 133.94922 258.66211 134.54688 281.77148 121.09961 301.49414"></polyline>
                <path d="M138.92969,229.27734 C138.65228,228.35265 180.38672,213.02748 181.76172,214.13672 C183.1311,215.24142 184.56257,228.45 183.35547,229.27734 C182.14837,230.10468 140.93311,235.95543 140.125,233.26172 L138.92969,229.27734 Z" id="rect3853" stroke="#000000" stroke-width="2.3875" fill="#000000" stroke-linejoin="round"></path>
                <path d="M140.52343,231.46875 C144.90625,261.55078 128.76953,255.57422 128.76953,255.57422" id="path3858" stroke="#000000" stroke-width="2.3875" stroke-linejoin="round"></path>
                <rect id="rect3860" stroke="#000000" stroke-width="2.3875" fill="#D40000" stroke-linejoin="round" transform="translate(121.199247, 273.304695) rotate(15.899186) translate(-121.199247, -273.304695) " x="112.035185" y="257.167976" width="18.328125" height="32.273438"></rect>
                <path d="M120.32255,250.92329 L127.20431,254.11282 C128.45834,254.4492 129.26755,254.60262 128.93116,255.85665 C128.59478,257.11069 128.86396,258.41292 127.60992,258.07654 L122.92369,256.84137 L118.96728,254.67571 C119.19238,253.91672 122.78579,253.54275 123.86128,254.27012 C126.38114,255.97434 118.85722,251.71386 120.32255,250.92329 Z" id="rect3865" fill="#999999"></path>
                <path d="M114.68511,263.28796 C114.68511,263.28796 117.05994,266.43677 122.43205,268.18242 C127.80415,269.92806 131.78576,269.15445 131.78576,269.15445 C131.97992,269.46599 129.95712,275.84096 128.94831,279.32223 C127.12177,284.06571 121.05144,281.79916 118.75511,281.11426 C116.45878,280.42936 110.63889,278.43318 111.40462,274.30913 C112.17036,270.18508 114.31202,263.45414 114.68511,263.28796 Z" id="rect3868" stroke="#000000" stroke-width="2.3875" fill="#FFFFFF" stroke-linejoin="round"></path>
                <path d="M80.27041,438.67679 C80.28911,431.04317 85.80932,428.61812 85.80932,428.61812 C85.80932,428.61812 106.25202,427.97077 106.25202,427.97077 L106.25202,450.21052 C106.25202,450.21052 85.2627,450.36558 85.2627,450.36558 C85.2627,450.36558 80.25167,446.31042 80.27041,438.67679 Z" id="rect3877" stroke="#000000" stroke-width="2.3875" fill="#FFFFFF" stroke-linejoin="round"></path>
                <path d="M95.61635,425.08106 C97.59865,424.79932 101.73727,428.65922 101.73727,428.65922 L101.73727,449.80379 C101.73727,449.80379 99.28908,453.38195 95.89809,453.38195 C92.50711,453.38195 89.49544,449.80379 89.49544,449.80379 L89.2137,428.65922 C89.2137,428.65922 92.22537,425.08106 95.61635,425.08106 Z" id="rect3880" stroke="#000000" stroke-width="2.3875" fill="#D40000" stroke-linejoin="round"></path>
                <rect id="rect3883" stroke="#000000" stroke-width="2.3875" fill="#28170B" stroke-linejoin="round" x="683.30542" y="546.21021" width="57.961029" height="29.59763"></rect>
                <path d="M701.22461,551.60813 L724.33399,551.60813" id="path3897" stroke="#FFD305" stroke-width="2.3875" stroke-linejoin="round"></path>
                <polyline id="path3903" stroke="#000000" stroke-width="2.3875" stroke-linejoin="round" points="702.41992 482.7832 684.19141 472.125 717.46094 449.91211 753.02149 470.43164 725.92774 487.46484"></polyline>
                <path d="M671.256578,344.324831 C671.256578,344.324831 670.033388,341.637321 677.524048,341.558701 C685.014708,341.480101 685.093398,343.845901 685.093398,343.845901 L685.985658,490.753631 L671.642438,490.440961 L671.256578,344.324831 Z" id="rect3899" stroke="#000000" stroke-width="2.3875" fill="#FFFFFF" stroke-linejoin="round" transform="translate(678.584050, 416.155208) rotate(-25.387378) translate(-678.584050, -416.155208) "></path>
                <polyline id="path3901" stroke="#000000" stroke-width="2.3875" stroke-linejoin="round" points="717.46094 446.625 720.64844 515.15625 707.59961 546.03516"></polyline>
                <path d="M70.3666678,443.062937 C70.3666678,453.780684 61.6782182,462.469132 50.96047,462.469132 C40.2427218,462.469132 31.5542603,453.780684 31.5542603,443.062937 C31.5542603,432.345179 40.2427218,423.65673 50.96047,423.65673 C61.6782182,423.65673 70.3666678,432.345179 70.3666678,443.062937 Z" id="path3845-1" stroke="#000000" stroke-width="2.3875" fill="#FFFFFF" stroke-linejoin="round" transform="translate(50.960464, 443.062931) rotate(20.923311) translate(-50.960464, -443.062931) "></path>
                <path d="M737.639847,427.101561 C737.639847,437.819309 728.951397,446.507759 718.233649,446.507759 C707.515901,446.507759 698.827439,437.819309 698.827439,427.101561 C698.827439,416.3838 707.515901,407.695351 718.233649,407.695351 C728.951397,407.695351 737.639847,416.3838 737.639847,427.101561 Z" id="path3845-8" stroke="#000000" stroke-width="2.3875" fill="#FFFFFF" stroke-linejoin="round"></path>
                <polygon id="rect3937" stroke="#000000" stroke-width="2.3875" fill="#D40000" stroke-linejoin="round" points="704.21289 486.26953 717.16211 480.39257 726.40088 489.35743 705.74121 499.3888 704.21289 486.26953"></polygon>
                <rect id="rect3940" stroke="#000000" stroke-width="2.3875" fill="#FFFFFF" stroke-linejoin="round" transform="translate(729.493066, 522.232052) rotate(-25.685908) translate(-729.493066, -522.232052) " x="717.805303" y="492.245226" width="23.3755249" height="59.9736518"></rect>
                <rect id="rect3950" stroke="#000000" stroke-width="2.38789059" fill="#D40000" stroke-linejoin="round" transform="translate(744.231702, 553.158699) rotate(-24.681686) translate(-744.231702, -553.158699) " x="732.502595" y="548.898366" width="23.458214" height="8.5206652"></rect>
                <rect id="rect3950-5" stroke="#000000" stroke-width="2.3875" fill="#D40000" stroke-linejoin="round" transform="translate(749.951000, 566.074575) rotate(-25.588442) translate(-749.951000, -566.074575) " x="742.558641" y="563.40808" width="14.784719" height="5.3329897"></rect>
                <rect id="rect3974" stroke="#000000" stroke-width="2.3875" fill="#FFFFFF" stroke-linejoin="round" transform="translate(747.205458, 560.339663) rotate(-25.560157) translate(-747.205458, -560.339663) " x="742.041195" y="556.898823" width="10.328526" height="6.8816786"></rect>
                <path d="M747.21267,568.51579 C747.21267,568.51579 757.31693,568.47169 757.31693,568.47169 L757.30993,571.96328 C757.30993,573.12133 756.37764,574.05363 755.21958,574.05363 L749.43935,574.05363 C748.28129,574.05363 747.349,573.12133 747.349,571.96328 C747.3898,570.80946 747.3133,569.66315 747.21238,568.51575 L747.21267,568.51579 Z" id="rect3976" stroke="#000000" stroke-width="2.3875" fill="#FFFFFF" stroke-linejoin="round" transform="translate(752.264655, 571.262660) rotate(-25.529670) translate(-752.264655, -571.262660) "></path>
                <polygon id="rect3979" stroke="#000000" stroke-width="2.3875" fill="#000000" stroke-linejoin="round" points="33.95032 434.00008 63.20317 428.33496 68.21757 434.90774 31.56428 442.47227"></polygon>
                <polyline id="path3982" stroke="#000000" stroke-width="2.3875" stroke-linejoin="round" points="55.54496 461.3456 79.4682 503.11592 81.95308 517.3715 106.24609 515.0495"></polyline>
                <polyline id="path3984" stroke="#000000" stroke-width="2.3875" stroke-linejoin="round" points="79.29558 502.69988 76.40984 524.8971 106.33756 531.317"></polyline>
                <path d="M23.32879,430.1478 L33.73352,433.93552 L31.21603,442.42075 L21.53504,441.47357 C21.53504,441.47357 19.30558,440.04333 20.3501,435.72605 C21.39463,431.40876 23.32881,430.14781 23.32881,430.14781 L23.32879,430.1478 Z" id="rect3988" stroke="#000000" stroke-width="2.3875" fill="#DEB700" stroke-linejoin="round"></path>
                <polyline id="path3991" stroke="#000000" stroke-width="2.3875" stroke-linejoin="round" points="80.96599 442.75323 73.92254 461.62967 61.27609 471.177 55.31125 491.26876 43.11987 498.62226"></polyline>
                <path d="M29.40796,432.32895 C26.73146,436.27327 27.15406,441.76715 27.15406,441.76715" id="path4015" stroke="#000000" stroke-width="2.3875" stroke-linejoin="round"></path>
            </g>
            <g id="layer3" transform="translate(73.031250, 74.576263)" stroke="#000000" stroke-linejoin="round">
                <rect id="rect4321" stroke-width="2.3875" fill="#666666" x="495.80237" y="219.58362" width="102.08276" height="24.785887"></rect>
                <polygon id="rect4256" stroke-width="2.3875" fill="#808080" points="532.1875 234.3125 505.90625 263.4375 564.4375 263.4375"></polygon>
                <polygon id="rect4247-7" stroke-width="2.3875" fill="#666666" points="530.03125 248.8125 502.24219 259.71973 549.19043 315.27049 530.03125 248.8125"></polygon>
                <polygon id="rect4247" stroke-width="2.3875" fill="#666666" points="521.71875 233.21875 476.9375 239.8125 481.71875 272.4375 486.6875 270.65625 538.90625 350.40625"></polygon>
                <rect id="rect4323-1" stroke-width="2.3875" fill="#666666" transform="translate(333.082033, 100.890598) rotate(146.214532) translate(-333.082033, -100.890598) " x="325.112321" y="83.9184643" width="15.939424" height="33.9442669"></rect>
                <polygon id="rect4318" stroke-width="2.3875" fill="#999999" points="333.93671 114.1991 363.23744 114.1991 360.51688 267.73666 355.13651 270.70482 360.33018 276.5495 354.28137 280.91969 360.28125 287.60213 354.77946 291.41351 359.5562 297.74698 354.16925 300.49284 359.15224 313.24688 341.11428 296.17137 334.00714 300.07564 333.93674 114.1991 333.93671 114.1991"></polygon>
                <path d="M349.5,122.0625 C344.22487,121.89725 340.22563,123.16079 337.90625,125.96875 C328.65291,137.17129 348.87095,169.60859 384.25,202.53125 L501.28125,261.90625 C501.46372,261.72161 501.64683,261.54432 501.8125,261.34375 C512.4154,248.50737 484.31968,207.78886 439.0625,170.40625 C403.70533,141.20109 368.33976,122.65266 349.5,122.0625 Z" id="path4242" stroke-width="2.3875" fill="#666666"></path>
                <path d="M270.46875,116.3125 C269.64467,116.3016 268.81257,116.3934 268,116.5625 C250.66523,120.17074 242.89513,164.05675 250.625,214.59375 C258.00593,262.84944 276.84579,299.72394 293.625,299.8125 L303.40625,160.09375 C306.17626,136.86277 281.93361,116.46414 270.46875,116.3125 Z M284.25,142.375 C284.48407,142.378 284.70599,142.38 284.9375,142.4375 C285.78993,142.69076 286.5646,143.18767 287.25,143.75 C288.01147,144.30523 288.74226,144.94392 289.25,145.75 C290.14402,147.2387 290.98509,148.75478 291.8125,150.28125 C293.27941,153.86161 294.80184,157.41507 296.09375,161.0625 C296.38793,161.89139 296.44666,162.9084 295.84375,163.625 C295.23272,164.40154 294.12443,164.49578 293.21875,164.34375 C292.23066,164.19112 291.28696,163.88173 290.40625,163.40625 C288.83238,162.70779 287.35681,161.73412 286.125,160.53125 C285.43362,159.81119 284.76245,159.08509 284.09375,158.34375 C283.37646,157.67965 282.79072,156.89319 282.28125,156.0625 C281.73978,154.91991 281.21501,153.75129 280.875,152.53125 C280.49374,151.54811 280.35944,150.50663 280.21875,149.46875 C280.14625,148.27346 280.25275,147.08615 280.4375,145.90625 C280.5274,144.94482 280.80331,143.95733 281.5,143.25 C281.68325,143.03748 281.92483,142.91696 282.1875,142.84375 C282.82396,142.54819 283.54778,142.36557 284.25,142.375 Z" id="path4168" stroke-width="2.3875" fill="#999999" fill-rule="nonzero"></path>
                <path d="M321.90625,57.1875 L311.5625,61.84375 L311.5625,80.875 C316.68365,78.71619 320.74286,72.33327 321.90625,57.1875 Z" id="rect3897-2" stroke-width="2.3875" fill="#666666"></path>
                <path d="M291.5625,57.90625 C292.97095,74.96737 297.10776,80.12685 302.40625,81.5625 L301.8125,61.4375 L291.5625,57.90625 Z" id="rect3897" stroke-width="2.3875" fill="#666666"></path>
                <rect id="rect4323" stroke-width="2.3875" fill="#666666" transform="translate(276.802738, 103.281232) rotate(37.705837) translate(-276.802738, -103.281232) " x="268.833026" y="86.3090981" width="15.939424" height="33.944267"></rect>
                <path d="M278.65512,2.460932 L275.93637,77.21094 L275.99887,77.21094 C276.16609,94.95224 290.39859,109.27344 307.93637,109.27344 C325.47416,109.27344 338.89415,92.18661 337.06918,74.84375 L337.13168,74.84375 L333.22544,0.070307 L333.62387,0.867182 L323.21762,23.33593 C322.95983,29.08278 322.21762,35.67751 322.21762,42.58594 C323.01449,74.31899 315.45463,81.27344 306.62387,81.27344 C297.79311,81.27344 290.62387,77.90492 290.62387,42.58594 C290.62387,35.98218 290.04097,29.87169 289.87387,24.55468 L278.65512,2.460932 Z" id="rect3878-3-6" stroke-width="2.3875" fill="#999999"></path>
                <path d="M315.71875,83.1875 C313.77279,84.19991 310.48777,84.875 306.75,84.875 C303.19913,84.875 300.03721,84.27184 298.0625,83.34375 C295.50024,84.09986 293.875,85.15753 293.875,86.34375 C293.875,88.63499 299.83213,90.5 307.1875,90.5 C314.54287,90.5 320.5,88.63499 320.5,86.34375 C320.5,85.07097 318.61534,83.94852 315.71875,83.1875 Z" id="path4004" stroke-width="2.3875" fill="#666666"></path>
                <rect id="rect4119" stroke-width="2.3875" fill="#666666" transform="translate(207.275270, 194.822398) rotate(-48.253446) translate(-207.275270, -194.822398) " x="108.15155" y="180.142703" width="198.247441" height="29.3593901"></rect>
                <polygon id="rect4247-7-9" stroke-width="2.3875" fill="#666666" points="161.53652 218.64769 143.71565 200.44259 116.44737 254.08801"></polygon>
                <polygon id="rect4354" stroke-width="2.3875" fill="#666666" points="54.03012 233.79681 60.1929 230.14023 100.376 229.85248 100.376 256.89931 60.79624 256.71856 53.74838 251.9689 54.03012 233.79681"></polygon>
                <polygon id="rect4347" stroke-width="2.3875" fill="#666666" points="81.53125 256.75 40.125 282.65625 36.90625 293.8125 96.125 256.75"></polygon>
                <path d="M131.46875,259.875 L89.84375,261.25 C88.70762,259.06276 90.96071,271.34339 82.46875,276.875 C74.15545,282.29023 69.50356,294.49058 71.3125,301.09375 C72.47819,305.34885 83.8457,289.03362 89.625,293.90625 C98.44327,301.34109 84.38842,313.97289 76.25,321.28125 C68.11157,328.58961 59.9375,343.53125 59.9375,343.53125 L68.71875,343.75 C68.71875,343.75 98.31552,330.96958 102.96875,324.8125 C107.62198,318.65541 107.00566,312.60624 109.4375,308.375 C112.35973,303.2905 112.90625,303.5625 112.90625,303.5625 L131.46875,259.875 Z M94.90625,321.96875 C95.92166,322.03105 96.88032,322.5849 97.4375,323.53125 C98.32899,325.04542 97.82667,326.98352 96.3125,327.875 L93,329.8125 C91.48583,330.70398 89.54774,330.20167 88.65625,328.6875 C87.76477,327.17333 88.26708,325.23523 89.78125,324.34375 L93.09375,322.40625 C93.66156,322.07194 94.297,321.93137 94.90625,321.96875 Z" id="rect4401" stroke-width="2.3875" fill="#999999" fill-rule="nonzero"></path>
                <path d="M266.46875,93.40625 C260.30752,93.40625 254.79985,96.03163 251.21875,100.125 L88.03125,222.28125 C81.17007,226.35625 76.2207,233.24943 75.09375,242.125 C73.52769,254.45885 86.06061,264.65625 99.59375,264.65625 C106.50952,264.65625 112.73315,262.01946 117.1875,257.78125 C121.06658,255.13722 124.96866,250.79036 127.96875,245.25 C131.0591,239.54295 132.61841,233.71165 132.625,228.9375 L138.84375,224.28125 L153.65625,224.4375 L153.74995,224.5 L153.84365,224.4375 L154.0624,224.4375 L154.0624,224.28125 L241.625,166 C241.625,166 241.33374,154.83103 252.34375,139.34375 C254.4453,137.88205 256.40183,136.2332 258.4375,134.6875 C267.1798,128.32478 277.8782,127.17349 283.34375,131.78125 C286.13238,128.01622 287.8125,123.20069 287.8125,117.9375 C287.8125,114.31505 287.03203,110.88033 285.625,107.875 C283.85712,99.62989 275.95865,93.40625 266.46875,93.40625 Z" id="path4013" stroke-width="2.3875" fill="#999999"></path>
                <path d="M350.12753,92.99206 C356.08016,93.1349 358.24069,95.82658 364.70374,99.90726 L524.8561,220.7366 C530.2405,226.87374 531.7389,234.27732 531.53751,242.67019 C531.24615,254.81238 520.41395,264.42038 507.33905,264.10663 C500.65744,263.9463 494.70632,261.22688 490.5021,256.98449 C486.81634,254.31236 483.14825,249.97667 480.37959,244.49631 C477.52763,238.85106 474.74883,228.04867 468.37462,225.6399 L460.78109,224.20006 L443.08929,222.7297 L372.4287,164.46439 C373.4922,152.2451 368.0294,140.59285 360.86358,132.64907 C352.5664,126.23244 342.25723,129.36785 333.76961,131.76901 C331.16366,128.02737 328.80807,121.59504 328.93141,116.45491 C329.01631,112.91717 329.85085,109.58085 331.28065,106.67841 C333.18188,98.66707 340.95877,92.77207 350.12735,92.99208 L350.12753,92.99206 Z" id="path4013-9" stroke-width="2.3875" fill="#999999"></path>
                <path d="M109.809001,240.406244 C109.809001,245.750259 105.476824,250.082442 100.13281,250.082442 C94.7887952,250.082442 90.4566121,245.750259 90.4566121,240.406244 C90.4566121,235.06223 94.7887952,230.730053 100.13281,230.730053 C105.476824,230.730053 109.809001,235.06223 109.809001,240.406244 Z" id="path4123" stroke-width="2.3875" fill="#666666"></path>
                <path d="M104.520955,240.406244 C104.520955,242.829751 102.556315,244.794392 100.132807,244.794392 C97.7092995,244.794392 95.7446585,242.829751 95.7446585,240.406244 C95.7446585,237.982736 97.7092995,236.018095 100.132807,236.018095 C102.556315,236.018095 104.520955,237.982736 104.520955,240.406244 Z" id="path4128" stroke-width="2.3875" fill="#999999"></path>
                <path d="M280.004321,113.640622 C280.004321,118.984637 275.672144,123.31682 270.32813,123.31682 C264.984115,123.31682 260.651932,118.984637 260.651932,113.640622 C260.651932,108.296608 264.984115,103.964431 270.32813,103.964431 C275.672144,103.964431 280.004321,108.296608 280.004321,113.640622 Z" id="path4123-6" stroke-width="2.3875" fill="#666666"></path>
                <path d="M274.716279,113.640623 C274.716279,116.064131 272.751639,118.028772 270.328131,118.028772 C267.904623,118.028772 265.939983,116.064131 265.939983,113.640623 C265.939983,111.217116 267.904623,109.252475 270.328131,109.252475 C272.751639,109.252475 274.716279,111.217116 274.716279,113.640623 Z" id="path4128-2" stroke-width="2.3875" fill="#999999"></path>
                <path d="M244.75,116.96875 C240.20645,116.85339 233.60486,119.40304 226.96875,124.125 L226.875,124 L115.46875,208.0625 L115.28125,208.1875 C112.48985,209.79428 106.7777,220.69184 112.8789,224.4204 C122.52928,230.31792 134.10038,215.31405 139.06442,213.98 C142.20948,213.13478 152.52372,216.93345 154.13912,214.17579 L227.07714,166.05467 C231.97091,165.21119 229.8128,150.85643 235.96875,145.97265 C246.79374,137.38471 253.01502,124.20756 249.84375,119.3125 C248.85272,117.78279 247.07231,117.02771 244.75,116.96875 Z" id="path4155" stroke-width="2.3875" fill="#666666"></path>
                <path d="M517.838939,238.502783 C517.838939,243.846794 513.505492,248.178975 508.159909,248.178975 C502.814327,248.178975 498.480873,243.846794 498.480873,238.502783 C498.480873,233.158772 502.814327,228.826598 508.159909,228.826598 C513.505492,228.826598 517.838939,233.158772 517.838939,238.502783 Z" id="path4123-4" stroke-width="2.38750005" fill="#666666" transform="translate(508.159906, 238.502786) scale(-1, 1) rotate(-1.965980) translate(-508.159906, -238.502786) "></path>
                <path d="M512.54929,238.50278 C512.54929,240.926286 510.584072,242.890926 508.159854,242.890926 C505.735635,242.890926 503.770418,240.926286 503.770418,238.50278 C503.770418,236.079274 505.735635,234.114635 508.159854,234.114635 C510.584072,234.114635 512.54929,236.079274 512.54929,238.50278 Z" id="path4128-7" stroke-width="2.38750005" fill="#999999" transform="translate(508.159854, 238.502780) scale(-1, 1) rotate(-1.965980) translate(-508.159854, -238.502780) "></path>
                <path d="M356.832249,114.987017 C356.832249,120.331028 352.498802,124.663209 347.153219,124.663209 C341.807637,124.663209 337.474183,120.331028 337.474183,114.987017 C337.474183,109.643006 341.807637,105.310832 347.153219,105.310832 C352.498802,105.310832 356.832249,109.643006 356.832249,114.987017 Z" id="path4123-6-7" stroke-width="2.38750005" fill="#666666" transform="translate(347.153216, 114.987020) scale(-1, 1) rotate(-1.965980) translate(-347.153216, -114.987020) "></path>
                <path d="M351.54265,114.987008 C351.54265,117.410514 349.577432,119.375154 347.153214,119.375154 C344.728995,119.375154 342.763778,117.410514 342.763778,114.987008 C342.763778,112.563503 344.728995,110.598863 347.153214,110.598863 C349.577432,110.598863 351.54265,112.563503 351.54265,114.987008 Z" id="path4128-2-3" stroke-width="2.38750005" fill="#999999" transform="translate(347.153214, 114.987008) scale(-1, 1) rotate(-1.965980) translate(-347.153214, -114.987008) "></path>
                <path d="M368.16904,113.79403 C372.71534,113.81733 379.23802,116.56728 385.72893,121.48956 L385.82643,121.36749 L494.64899,208.79048 L494.83263,208.92115 C497.57454,210.61237 502.95326,221.67916 496.73936,225.2198 C486.91072,230.82008 475.79934,215.4701 470.87685,213.98519 C467.75812,213.04438 457.32976,216.52653 455.79877,213.72085 L384.34141,163.39638 C379.47422,162.40397 382.06986,148.12175 376.06396,143.05238 C365.50285,134.1381 359.68463,120.77726 363.0047,115.98125 C364.04222,114.4825 365.84536,113.7821 368.16904,113.79403 Z" id="path4155-9" stroke-width="2.3875" fill="#666666"></path>
                <path d="M518.573344,275.432208 C518.573344,279.108981 515.592732,282.089591 511.915958,282.089591 C508.239184,282.089591 505.258572,279.108981 505.258572,275.432208 C505.258572,271.755434 508.239184,268.774813 511.915958,268.774813 C515.592732,268.774813 518.573344,271.755434 518.573344,275.432208 Z" id="path4254" stroke-width="2.38867931" fill="#999999"></path>
                <rect id="rect4365" stroke-width="2.3875" fill="#999999" x="35.57629" y="233.79681" width="18.453829" height="18.312962"></rect>
                <polygon id="rect4367" stroke-width="2.3875" fill="#666666" points="19.79897 234.21941 35.29455 234.07854 35.22505 239.95909 20.64419 239.85417 0.92255 243.65763 19.79898 234.21941"></polygon>
                <polygon id="rect4367-5" stroke-width="2.3875" fill="#666666" points="20.22159 245.62981 35.57629 245.91155 35.50679 252.07383 19.93985 251.26457 1.20429 243.65765 20.22159 245.62981"></polygon>
                <polygon id="rect4367-3" stroke-width="2.3875" fill="#999999" points="19.79898 239.99505 35.29455 240.13592 35.36595 245.8756 19.3764 245.34807 1.48606 243.65764 19.79901 239.99505"></polygon>
            </g>
            <g id="layer1" transform="translate(185.031250, 220.214080)" stroke="#000000" stroke-linejoin="round" stroke-width="2.3875">
                <path d="M195.03125,100.01843 C126.11645,100.01843 70.25,155.88485 70.25,224.79968 C70.25,293.71451 126.11645,349.58093 195.03125,349.58093 C263.94616,349.58093 319.84375,293.71451 319.84375,224.79968 C319.84375,155.88485 263.94615,100.01843 195.03125,100.01843 Z M195.06245,109.95593 C258.48613,109.95593 309.87495,161.376 309.87495,224.79968 C309.87495,288.22336 258.48613,339.64343 195.06245,339.64343 C131.63877,339.64343 80.2187,288.22336 80.2187,224.79968 C80.2187,161.376 131.63877,109.95593 195.06245,109.95593 Z" id="path3620-6-8" fill="#666666" fill-rule="nonzero"></path>
                <path d="M195.03125,30.67468 C87.82555,30.67468 0.9375,117.5939 0.9375,224.79968 C0.9375,332.00546 87.82555,418.92468 195.03125,418.92468 C302.23715,418.92468 389.15625,332.00546 389.15625,224.79968 C389.15625,117.5939 302.23715,30.67468 195.03125,30.67468 Z M195.03125,100.01843 C263.94615,100.01843 319.84375,155.88485 319.84375,224.79968 C319.84375,293.71451 263.94615,349.58093 195.03125,349.58093 C126.11645,349.58093 70.25,293.71451 70.25,224.79968 C70.25,155.88485 126.11645,100.01843 195.03125,100.01843 Z" id="path3606-4-7" fill="#999999" fill-rule="nonzero"></path>
                <path d="M195.0625,0.33093 L0.65625,112.58093 L0.65625,337.04968 L195.0625,449.26843 L389.4375,337.04968 L389.4375,112.58093 L195.0625,0.33093 Z M195.0313,30.67468 C208.11186,30.67468 220.89486,31.98929 233.25005,34.45593 C233.89826,34.58534 234.54169,34.72633 235.18755,34.86218 C241.1489,36.11609 247.03514,37.63744 252.7813,39.42468 C254.30077,39.89722 255.80935,40.38481 257.31255,40.89343 C258.81585,41.40215 260.29477,41.91164 261.7813,42.45593 C261.7937,42.46093 261.8001,42.48263 261.8125,42.48713 C263.28626,43.0271 264.76198,43.56894 266.21875,44.14338 C267.0904,44.48684 267.94708,44.85022 268.8125,45.20588 C269.85699,45.63539 270.90225,46.07127 271.9375,46.51838 C273.92791,47.37801 275.88849,48.2822 277.84375,49.20588 C281.13258,50.75954 284.37815,52.38229 287.5625,54.11213 C287.5748,54.11913 287.5814,54.13663 287.5937,54.14333 C288.95627,54.88391 290.31359,55.62131 291.6562,56.39333 C292.21635,56.71523 292.75584,57.06601 293.31245,57.39333 C296.79673,59.44329 300.22182,61.57395 303.56245,63.83083 C303.57435,63.83883 303.58175,63.85403 303.59365,63.86203 C304.8723,64.72628 306.14945,65.59335 307.40615,66.48703 C307.41795,66.49503 307.42565,66.50993 307.43735,66.51823 C309.96209,68.31451 312.44176,70.16866 314.87485,72.08073 C323.43098,78.80133 331.40736,86.22762 338.7186,94.26823 C338.7286,94.27913 338.74,94.28863 338.7498,94.29943 C340.83824,96.59726 342.86589,98.93425 344.84355,101.33068 C345.83253,102.52904 346.78928,103.73343 347.7498,104.95568 C363.11572,124.50932 374.80575,147.11068 381.78105,171.67443 C382.64996,174.73569 383.46688,177.83483 384.1873,180.95568 C384.90982,184.08615 385.55573,187.23803 386.1248,190.42443 C386.69399,193.61095 387.1819,196.84232 387.59355,200.08068 C388.62245,208.17637 389.15605,216.42398 389.15605,224.79943 C389.15605,233.17488 388.62245,241.42214 387.59355,249.51818 C387.1819,252.75654 386.69399,255.98791 386.1248,259.17443 C385.55573,262.36102 384.90982,265.51248 384.1873,268.64318 C383.46463,271.77379 382.65314,274.88504 381.78105,277.95568 C374.3698,304.05702 361.65364,327.89444 344.84355,348.26818 C341.87706,351.86355 338.77577,355.36569 335.5623,358.73693 C334.49099,359.86059 333.41004,360.95169 332.3123,362.04943 C330.11713,364.24509 327.86013,366.398 325.5623,368.48693 C317.51883,375.79755 308.87631,382.43951 299.6873,388.33068 C297.06215,390.01404 294.39683,391.64735 291.6873,393.20568 C286.26043,396.3272 280.67816,399.17261 274.9373,401.76818 C272.07121,403.06426 269.18808,404.29683 266.2498,405.45568 C264.7717,406.03878 263.27664,406.59557 261.78105,407.14318 C257.33063,408.77223 252.78353,410.24384 248.1873,411.54943 C245.11666,412.42152 242.00542,413.23301 238.8748,413.95568 C235.75404,414.67568 232.61363,415.32571 229.4373,415.89318 C218.28487,417.88711 206.78771,418.92259 195.0623,418.92443 C193.37676,418.92443 191.70631,418.90463 190.03105,418.86193 C185.04673,418.73565 180.10267,418.41966 175.21855,417.92443 C175.20825,417.92343 175.19765,417.92543 175.18735,417.92443 C173.56629,417.7598 171.95262,417.5662 170.3436,417.36193 C170.3334,417.36093 170.3226,417.36293 170.3124,417.36193 C167.07404,416.95028 163.87392,416.46237 160.6874,415.89318 C157.50081,415.32392 154.34935,414.67844 151.21865,413.95568 C149.66318,413.59661 148.10332,413.19563 146.5624,412.79943 C146.5524,412.79643 146.5409,412.80243 146.5312,412.79943 C144.98063,412.40049 143.44152,411.98547 141.9062,411.54943 C138.82262,410.6736 135.80021,409.72809 132.7812,408.70568 C129.7746,407.68825 126.81345,406.6144 123.87495,405.45568 C121.38128,404.4723 118.94189,403.4131 116.49995,402.33068 C116.06568,402.13826 115.62004,401.96369 115.18745,401.76818 C115.17845,401.76418 115.16475,401.77218 115.15625,401.76818 C109.42359,399.17631 103.85709,396.32202 98.4375,393.20568 C96.24334,391.94395 94.07662,390.64338 91.9375,389.29943 C91.43578,388.98431 90.93612,388.65025 90.4375,388.33068 C90.4305,388.32568 90.4136,388.33568 90.4063,388.33068 C83.84954,384.12707 77.58002,379.5197 71.5938,374.58068 C71.5878,374.57568 71.5687,374.58568 71.5626,374.58068 C70.37039,373.59678 69.19942,372.59225 68.03135,371.58068 C68.02535,371.57568 68.00595,371.58568 68.00015,371.58068 C66.82618,370.56375 65.68047,369.5313 64.5314,368.48693 C62.79948,366.91279 61.11156,365.30945 59.43765,363.67443 C58.89031,363.13992 58.35367,362.59032 57.81265,362.04943 C56.70951,360.94654 55.60786,359.86599 54.5314,358.73693 C52.38878,356.48962 50.31526,354.17862 48.2814,351.83068 C46.24754,349.48274 44.26494,347.08768 42.3439,344.64318 C39.46234,340.97643 36.71017,337.20326 34.0939,333.33068 C32.34972,330.74896 30.65259,328.1238 29.0314,325.45568 C27.41021,322.78756 25.86929,320.08113 24.37515,317.33068 C22.13395,313.205 20.0378,308.97393 18.0939,304.67443 C14.2061,296.07544 10.92891,287.1676 8.31265,277.95568 C7.44056,274.88504 6.62907,271.77379 5.9064,268.64318 C5.18373,265.51257 4.53809,262.36095 3.9689,259.17443 C3.39971,255.98791 2.9118,252.75654 2.50015,249.51818 C1.47103,241.42227 0.93765,233.17488 0.93765,224.79943 C0.93765,216.42398 1.47103,208.17659 2.50015,200.08068 C2.9118,196.84232 3.39971,193.61095 3.9689,190.42443 C4.53809,187.23791 5.18373,184.08629 5.9064,180.95568 C6.62682,177.83483 7.44374,174.73569 8.31265,171.67443 C8.31565,171.66443 8.30965,171.65283 8.31265,171.64323 C10.92891,162.43131 14.2061,153.52347 18.0939,144.92448 C20.0378,140.62498 22.13395,136.39391 24.37515,132.26823 C25.86929,129.51778 27.41021,126.81135 29.0314,124.14323 C30.65259,121.47511 32.34972,118.84995 34.0939,116.26823 C35.83336,113.69348 37.6424,111.15925 39.50015,108.67448 C39.50515,108.66748 39.49515,108.64978 39.50015,108.64328 C40.4317,107.39765 41.38338,106.17803 42.3439,104.95578 C44.26494,102.51128 46.24754,100.11622 48.2814,97.76828 C49.29323,96.60019 50.33615,95.44296 51.37515,94.29953 C51.38015,94.29353 51.37015,94.27393 51.37515,94.26833 C52.41437,93.12493 53.46551,92.01157 54.5314,90.89333 C54.5364,90.88833 54.5264,90.86743 54.5314,90.86213 C55.60786,89.73307 56.70951,88.65252 57.81265,87.54963 C62.20453,83.15876 66.79947,78.97409 71.5939,75.01838 C77.58012,70.07936 83.84964,65.47199 90.4064,61.26838 C91.71911,60.42678 93.07234,59.61022 94.4064,58.79963 C98.40858,56.36785 102.50251,54.06826 106.68765,51.92463 C108.0827,51.21009 109.49204,50.51239 110.9064,49.83088 C113.73512,48.46786 116.59723,47.18371 119.50015,45.95588 C123.85453,44.11413 128.2715,42.41953 132.7814,40.89338 C134.29409,40.38149 135.81475,39.89999 137.3439,39.42463 C143.41307,37.53795 149.62936,35.93424 155.93765,34.64338 C168.57395,32.05762 181.63069,30.67463 195.0314,30.67463 L195.0313,30.67468 Z" id="path3610" fill="#666666" fill-rule="nonzero"></path>
                <path d="M76.83017,184.10438 C107.82134,128.88376 138.8125,124.65769 138.8125,124.65769" id="path2950"></path>
            </g>
        </g>
    </g>
</svg>